<?xml version="1.0" encoding="UTF-8" standalone="no"?>
<!DOCTYPE svg PUBLIC "-//W3C//DTD SVG 1.1//EN" "http://www.w3.org/Graphics/SVG/1.1/DTD/svg11.dtd">
<svg version="1.1" xmlns="http://www.w3.org/2000/svg" xmlns:xlink="http://www.w3.org/1999/xlink" preserveAspectRatio="xMidYMid meet" viewBox="0 0 640 640" width="640" height="640"><defs><path d="M116.69 407.35C126.32 336.04 213.89 271.37 272.5 213.3C331.11 155.22 361.04 103.66 402.69 91.18C444.24 78.88 497.78 105.59 532.94 139.11C568.24 172.59 585.17 212.88 598.35 255.86C611.53 298.83 620.9 344.8 608.08 396.59C595.26 448.37 559.96 506.04 495.63 546.81C431.13 587.49 337.42 611.18 256.33 583.99C175.38 556.76 107.19 478.63 116.69 407.35Z" id="biLzjsp5k"></path><path d="M273.66 292.85C260.83 340.15 203.94 365.95 146.69 350.42C89.44 334.9 53.38 283.89 66.21 236.59C79.03 189.29 135.93 163.49 193.17 179.02C250.42 194.54 286.48 245.55 273.66 292.85Z" id="cwWv7ZNnu"></path><path d="M235.82 248.48L566.76 351.92L508.88 537.11L177.94 433.67L235.82 248.48Z" id="b3d7RdEFTc"></path><path d="M543.65 438.63C565.94 385.75 579.87 352.69 585.44 339.47C588.7 331.74 599.48 331.25 603.42 338.66C608.72 348.63 611.23 357.79 610.95 366.17C610.21 388.06 612.72 397.89 586.19 452.29C570.51 484.43 545.38 512.52 510.78 536.56C507.33 538.96 502.89 535.36 504.52 531.48C509.74 519.1 522.78 488.15 543.65 438.63Z" id="dsRpSsOZk"></path><path d="M228 164.9L605.48 282.89L539.03 495.5L161.54 377.51L228 164.9Z" id="b42PHLs3jm"></path><path d="M568.61 380.77L538.08 495.5C550.64 496.17 561.59 490.89 570.9 479.64C584.87 462.77 593.27 457.08 609.5 398.77C619.08 364.32 618.9 326.63 608.96 285.69C607.97 281.6 602.26 281.35 600.91 285.33C596.6 298.06 585.83 329.87 568.61 380.77Z" id="dqjkTxuQ6"></path><path d="M213.06 160.3L230.32 165.7L163.87 378.31L146.6 372.91L213.06 160.3Z" id="m4db0l5ARc"></path><path d="M614.8 319.7L615.86 340.32L288.39 240.15L293.68 222.85L614.8 319.7Z" id="bV5FK0ZiF"></path><path d="M614.19 367.44L611.57 386.38L276.64 283.92L281.93 266.63L614.19 367.44Z" id="eadBjl5bO"></path><path d="M598.18 433.62L591.24 450.92L254.83 347.5L260.12 330.2L598.18 433.62Z" id="a3FxRjSdZr"></path></defs><g><g><g><use xlink:href="#biLzjsp5k" opacity="1" fill="#0693e3" fill-opacity="1"></use><g><use xlink:href="#biLzjsp5k" opacity="1" fill-opacity="0" stroke="#000000" stroke-width="1" stroke-opacity="0"></use></g></g><g><use xlink:href="#cwWv7ZNnu" opacity="1" fill="#f2f2f2" fill-opacity="0"></use><g><use xlink:href="#cwWv7ZNnu" opacity="1" fill-opacity="0" stroke="#686868" stroke-width="15" stroke-opacity="1"></use></g></g><g><g><use xlink:href="#b3d7RdEFTc" opacity="1" fill="#2a2a2a" fill-opacity="1"></use><g><use xlink:href="#b3d7RdEFTc" opacity="1" fill-opacity="0" stroke="#d14302" stroke-width="1" stroke-opacity="0"></use></g></g><g><use xlink:href="#dsRpSsOZk" opacity="1" fill="#2a2a2a" fill-opacity="1"></use><g><use xlink:href="#dsRpSsOZk" opacity="1" fill-opacity="0" stroke="#b4b4b4" stroke-width="1" stroke-opacity="0"></use></g></g></g><g><use xlink:href="#b42PHLs3jm" opacity="1" fill="#f2f2f2" fill-opacity="1"></use><g><use xlink:href="#b42PHLs3jm" opacity="1" fill-opacity="0" stroke="#d14302" stroke-width="1" stroke-opacity="0"></use></g></g><g><use xlink:href="#dqjkTxuQ6" opacity="1" fill="#f2f2f2" fill-opacity="1"></use><g><use xlink:href="#dqjkTxuQ6" opacity="1" fill-opacity="0" stroke="#b4b4b4" stroke-width="1" stroke-opacity="0"></use></g></g><g><use xlink:href="#m4db0l5ARc" opacity="1" fill="#86c4e9" fill-opacity="1"></use><g><use xlink:href="#m4db0l5ARc" opacity="1" fill-opacity="0" stroke="#d14302" stroke-width="1" stroke-opacity="0"></use></g></g><g><use xlink:href="#bV5FK0ZiF" opacity="1" fill="#86c4e9" fill-opacity="1"></use><g><use xlink:href="#bV5FK0ZiF" opacity="1" fill-opacity="0" stroke="#d14302" stroke-width="1" stroke-opacity="0"></use></g></g><g><use xlink:href="#eadBjl5bO" opacity="1" fill="#86c4e9" fill-opacity="1"></use><g><use xlink:href="#eadBjl5bO" opacity="1" fill-opacity="0" stroke="#d14302" stroke-width="1" stroke-opacity="0"></use></g></g><g><use xlink:href="#a3FxRjSdZr" opacity="1" fill="#86c4e9" fill-opacity="1"></use><g><use xlink:href="#a3FxRjSdZr" opacity="1" fill-opacity="0" stroke="#d14302" stroke-width="1" stroke-opacity="0"></use></g></g></g></g></svg>